<svg width="1061" height="80" viewBox="0 0 1061 80" fill="none" xmlns="http://www.w3.org/2000/svg">
<path d="M1060.88 79.91H831.94H726.94H562.88H498H333.93H228.94H0V69.7H10.19V63.87H19.76L23.39 40.92H23.93V38.16H25.83V40.92H26.3V39.88H27.64V40.92H30.4V38.52H31.16V36.85H36.59V38.52H37.34V40.92H38.1V54.7H42.92V19.72H44.51V12.06H45.01V19.72H46.23V9.08H46.73V19.72H47.77V13.96H48.29V19.72H57.64V44.55H68.04V60.64H119.31V52.38H121.85V36.71H120.87V36.36H142.75V36.71H141.75V60.64H145.96V24.07H146.85V13.37H151.37V9.3H153.79V5.87H154.64V0H154.86V5.87H155.7V9.3H158.13V13.37H162.62V24.07H163.55V43.5H170.51V60.64H193.59V27.51H191.73V26.98H193.59V26.04H195.94V24.52H215.18V26.04H217.52V26.98H219.38V27.51H217.52V48.13H220.67V44.26H240.08V48.99H244.3V57.78H248.09H251.16V29.02H253.44V27.07H255.25V21.89H255.63V27.07H256.49V20.59H256.87V27.07H257.92V29.02H258.49V57.78H260.23V47.28H264.42V40.92H262.91V39.78H265.56V36.68H276.38H276.89H278.47V39.78H280.37V36.68H280.59H282.27H282.5V39.78H284.4V36.68H285.97H286.5H297.32V39.78H299.96V40.92H298.46V47.28H302.64V57.78H304.39V29.02H304.95V27.07H306V20.59H306.39V27.07H307.24V21.89H307.61V27.07H309.42V29.02H311.71V57.78H314.79H318.56V48.99H322.79V44.26H342.2V48.13H345.34V27.51H343.48V26.98H345.34V26.04H347.7V24.52H366.93V26.04H369.28V26.98H371.13V27.51H369.28V60.64H392.37V43.5H399.32V24.07H400.26V13.37H404.75V9.3H407.16V5.87H408.01V0H408.23V5.87H409.08V9.3H411.49V13.37H416.02V24.07H416.92V60.64H421.11V36.71H420.12V36.36H442.01V36.71H441.02V52.38H443.57V60.64H494.82V44.55H505.22V19.72H514.58V13.96H515.09V19.72H516.14V9.08H516.65V19.72H517.85V12.06H518.36V19.72H519.95V50.05L521.39 40.92H521.93V38.16H523.84V40.92H524.3V39.88H525.53V38.52H526.29V36.85H529.16H531.72H534.59V38.52H535.35V39.88H536.56V40.92H537.04V38.16H538.94V40.92H539.48L540.93 50.05V19.72H542.51V12.06H543.01V19.72H544.23V9.08H544.73V19.72H545.77V13.96H546.29V19.72H555.64V44.55H566.04V60.64H617.31V52.38H619.85V36.71H618.87V36.36H640.75V36.71H639.75V60.64H643.96V24.07H644.85V13.37H649.37V9.3H651.79V5.87H652.64V0H652.86V5.87H653.7V9.3H656.13V13.37H660.62V24.07H661.55V43.5H668.51V60.64H691.59V27.51H689.73V26.98H691.59V26.04H693.95V24.52H713.18V26.04H715.52V26.98H717.38V27.51H715.52V48.13H718.67V44.26H738.08V48.99H742.3V57.78H746.09H749.16V29.02H751.45V27.07H753.25V21.89H753.64V27.07H754.49V20.59H754.87V27.07H755.92V29.02H756.49V57.78H758.23V47.28H762.42V40.92H760.91V39.78H763.56V36.68H774.38H774.89H776.48V39.78H778.38V36.68H778.59H780.27H780.5V39.78H782.4V36.68H783.97H784.5H795.32V39.78H797.96V40.92H796.46V47.28H800.64V57.78H802.39V29.02H802.95V27.07H804.01V20.59H804.39V27.07H805.24V21.89H805.62V27.07H807.42V29.02H809.71V57.78H812.79H816.56V48.99H820.79V44.26H840.2V48.13H843.34V27.51H841.49V26.98H843.34V26.04H845.7V24.52H864.93V26.04H867.28V26.98H869.13V27.51H867.28V60.64H890.37V43.5H897.32V24.07H898.26V13.37H902.75V9.3H905.16V5.87H906.01V0H906.23V5.87H907.08V9.3H909.49V13.37H914.02V24.07H914.92V60.64H919.11V36.71H918.12V36.36H940.01V36.71H939.02V52.38H941.57V60.64H992.82V44.55H1003.22V19.72H1012.59V13.96H1013.09V19.72H1014.14V9.08H1014.65V19.72H1015.85V12.06H1016.37V19.72H1017.95V54.7H1022.77V40.92H1023.53V38.52H1024.29V36.85H1029.72V38.52H1030.48V40.92H1033.23V39.88H1034.56V40.92H1035.04V38.16H1036.94V40.92H1037.49L1041.11 63.87H1050.68V69.7H1060.88V79.91Z" fill="#ACDEE5"/>
</svg>
