<svg width="39" height="13" viewBox="0 0 39 13" fill="none" xmlns="http://www.w3.org/2000/svg">
<path fill-rule="evenodd" clip-rule="evenodd" d="M28.4301 7.6407L28.4101 9.44071C28.4001 10.1507 27.8201 10.7207 27.1101 10.7107L24.5701 10.6907C24.5801 9.05071 23.2701 7.70071 21.6301 7.69071C19.9901 7.67071 18.6401 8.99071 18.6301 10.6307L10.7801 10.5507C10.8001 8.91071 9.49014 7.57071 7.84014 7.55071C6.20014 7.53071 4.86012 8.85071 4.85012 10.4907L1.40014 10.4607C0.620142 10.4507 -0.00988258 9.81071 0.000117418 9.02071L0.0101272 7.5307C0.0301272 6.0007 1.28012 4.7707 2.82012 4.7807L4.79013 4.80071L6.93014 2.55071C8.49014 0.900707 10.6701 -0.029296 12.9501 0.000704041L18.6401 0.0507071C20.5501 0.0707071 22.3601 0.890707 23.6501 2.30071L26.1301 5.0307C27.4401 5.1807 28.4401 6.3007 28.4301 7.6407ZM16.8301 1.4207L13.0001 1.3907C11.7901 1.3707 10.6201 1.83071 9.73013 2.66071L8.36013 3.9507C7.94013 4.3407 8.22013 5.05071 8.79013 5.05071L16.7901 5.13071L16.8301 1.4207ZM22.2301 4.08071L20.8801 2.77071C20.0101 1.92071 18.8501 1.44071 17.6401 1.43071H17.4501L17.4101 5.1407L21.7701 5.18071C22.3501 5.18071 22.6401 4.48071 22.2301 4.08071Z" fill="#087A85"/>
<path d="M23.8202 10.6807C23.8102 11.9107 22.8002 12.8907 21.5702 12.8807C20.3502 12.8707 19.3602 11.8607 19.3702 10.6307C19.3802 9.41071 20.3902 8.42071 21.6202 8.43071C22.8502 8.44071 23.8302 9.45071 23.8202 10.6807Z" fill="#087A85"/>
<path d="M10.0401 10.5407C10.0301 11.7707 9.02014 12.7607 7.79014 12.7407C6.57014 12.7307 5.58016 11.7307 5.59016 10.5007C5.60016 9.27071 6.61016 8.28071 7.84016 8.30071C9.07016 8.31071 10.0501 9.31072 10.0401 10.5407Z" fill="#087A85"/>
<path d="M31.6302 8.53072C31.6202 9.05072 32.0402 9.48072 32.5602 9.48072C33.0802 9.49072 33.5002 9.07073 33.5102 8.55073C33.5202 8.03073 33.1002 7.60073 32.5802 7.60073C32.0602 7.59073 31.6302 8.01072 31.6302 8.53072Z" fill="#087A85"/>
<path d="M36.3502 6.46072C36.3502 6.98072 36.7702 7.40072 37.2902 7.41072C37.8102 7.41072 38.2302 7.00072 38.2402 6.47072C38.2402 5.95072 37.8302 5.53072 37.3102 5.52072C36.7902 5.52072 36.3602 5.94072 36.3502 6.46072Z" fill="#087A85"/>
<path d="M30.2102 5.45071C30.2002 6.25071 30.8502 6.91072 31.6402 6.91072C32.4402 6.92072 33.0902 6.28071 33.1002 5.48071C33.1102 4.69071 32.4702 4.03072 31.6702 4.02072C30.8702 4.02072 30.2202 4.66071 30.2102 5.45071Z" fill="#087A85"/>
</svg>
