<svg width="122" height="109" viewBox="0 0 122 109" fill="none" xmlns="http://www.w3.org/2000/svg">
<path d="M1.15855 99.2661L34.9535 79.0383C35.6442 78.6107 36.4008 78.3805 37.2231 78.3476L49.1623 77.7555C50.0503 77.7062 50.8397 78.1503 51.3331 78.8903L52.1225 80.2717C52.8132 81.4064 52.4185 82.8371 51.3331 83.5278L26.2211 98.5754C25.9909 98.7069 25.7442 98.7892 25.4811 98.8221L2.83596 103.608C1.84924 103.805 0.862472 103.361 0.319777 102.522C-0.32159 101.388 0.0238276 99.9568 1.15855 99.2661Z" fill="#0DB0C3"/>
<path d="M67.2186 2.32049L67.86 41.6907C67.86 42.513 67.679 43.2859 67.3172 44.0095L61.841 54.6661C61.4463 55.4555 60.6569 55.9488 59.7689 55.9488H58.1902C56.8581 55.9981 55.822 54.9621 55.7726 53.63L55.3286 24.3737C55.3286 24.1106 55.3616 23.8475 55.4274 23.5843L62.6304 1.62979C62.9264 0.64307 63.8144 0.00169129 64.8504 0.00169129C66.1332 -0.0476448 67.2186 0.988419 67.2186 2.32049Z" fill="#0DB0C3"/>
<path d="M118.135 107.998L83.7477 88.856C83.0241 88.4613 82.4321 87.9186 81.9717 87.2279L75.5085 77.2127C75.0645 76.4726 75.0153 75.5352 75.4593 74.7458L76.1993 73.3644C76.8407 72.2297 78.2714 71.835 79.4555 72.427L105.011 86.6852C105.242 86.8167 105.439 86.9812 105.603 87.1786L121.046 104.397C121.736 105.137 121.835 106.222 121.391 107.11C120.75 108.245 119.319 108.64 118.135 107.998Z" fill="#0DB0C3"/>
<path d="M53.9475 69.7135C53.9475 64.4346 58.2397 60.1423 63.5187 60.1423C68.7976 60.1423 73.0898 64.4346 73.0898 69.7135C73.0898 74.9925 68.7976 79.2847 63.5187 79.2847C58.2397 79.2847 53.9475 74.9925 53.9475 69.7135Z" fill="#0DB0C3"/>
</svg>
