<?xml version="1.0" encoding="UTF-8"?>
<!DOCTYPE svg PUBLIC "-//W3C//DTD SVG 1.1//EN" "http://www.w3.org/Graphics/SVG/1.1/DTD/svg11.dtd">
<!-- Creator: CorelDRAW 2019 (64-Bit) -->
<svg xmlns="http://www.w3.org/2000/svg" xml:space="preserve" width="210mm" height="297mm" version="1.1" style="shape-rendering:geometricPrecision; text-rendering:geometricPrecision; image-rendering:optimizeQuality; fill-rule:evenodd; clip-rule:evenodd"
viewBox="0 0 21000 29700"
 xmlns:xlink="http://www.w3.org/1999/xlink">
 <defs>
  <style type="text/css">
   <![CDATA[
    .fil0 {fill:#097D8A;fill-rule:nonzero}
   ]]>
  </style>
 </defs>
 <g id="Layer_x0020_1">
  <metadata id="CorelCorpID_0Corel-Layer"/>
  <g id="_2067195718944">
   <path class="fil0" d="M6270.97 26959.71l-126.19 -59.91 1723.33 -3632.96c11.07,-24.53 1161.6,-2583.49 1390.74,-5425.04 230.17,-2854.16 786.13,-11417.01 791.72,-11503.24l139.41 9.05c-5.59,86.12 -561.63,8650.14 -791.91,11505.42 -231.15,2866.76 -1391.58,5446.98 -1403.33,5472.73l-1723.77 3633.95z"/>
   <path class="fil0" d="M7652.82 27083.17l-130.85 -48.95 1408.51 -3766.24c5.69,-15.75 603.16,-1713.98 833.93,-3842.66l138.95 14.99c-232.71,2145.79 -835.57,3858.55 -841.54,3875.56l-1409 3767.3z"/>
   <path class="fil0" d="M13355.95 27083.17l-1408.62 -3766.15c-6.43,-18.16 -609.3,-1730.92 -842,-3876.71l138.94 -14.99c230.97,2129.63 828.35,3826.91 834.29,3843.84l1408.24 3765.06 -130.85 48.95z"/>
   <path class="fil0" d="M14736.38 26959.71l-1723.31 -3632.96c-12.13,-26.74 -1172.55,-2606.96 -1403.82,-5473.72 -230.28,-2855.28 -786.21,-11419.3 -791.88,-11505.42l139.5 -9.05c5.58,86.23 561.54,8649.08 791.71,11503.24 229.22,2842.61 1379.67,5400.51 1391.23,5426.1l1722.82 3631.9 -126.25 59.91z"/>
   <polygon class="fil0" points="7698.31,27372.19 5811.96,27372.19 5811.96,26766.74 7698.31,26766.74 "/>
   <polygon class="fil0" points="15173.78,27372.19 13287.48,27372.19 13287.48,26766.74 15173.78,26766.74 "/>
   <polygon class="fil0" points="13304.9,23506.44 7733.23,23506.44 7733.23,22970.41 13304.9,22970.41 "/>
   <path class="fil0" d="M13273.25 22970.41l-5584.37 0c-55.84,0 -101.52,-45.68 -101.52,-101.56l0 -12.02c0,-55.76 45.68,-101.52 101.52,-101.52l5584.37 0c55.88,0 101.53,45.76 101.53,101.52l0 12.02c0,55.88 -45.65,101.56 -101.53,101.56z"/>
   <polygon class="fil0" points="11977.53,18746.88 9008.26,18746.88 9008.26,18318.99 11977.53,18318.99 "/>
   <path class="fil0" d="M11962.81 18318.99l-2980.6 0c-52.88,0 -96.24,-43.25 -96.24,-96.24l0 -11.36c0,-52.88 43.36,-96.13 96.24,-96.13l2980.6 0c52.88,0 96.16,43.25 96.16,96.13l0 11.36c0,52.99 -43.28,96.24 -96.16,96.24z"/>
   <polygon class="fil0" points="11877.8,19502.61 9119.63,19502.61 9119.63,19362.9 11877.8,19362.9 "/>
   <polygon class="fil0" points="9864.11,5472.71 9864.11,5769.63 10056.24,6343.08 10964.47,6343.08 11182.84,5725.96 11182.84,5472.71 "/>
   <polygon class="fil0" points="11059.07,5472.71 9987.85,5472.71 9987.85,4887.64 11059.07,4887.64 "/>
   <polygon class="fil0" points="10523.42,4416.01 10044.6,4887.64 10981.97,4887.64 "/>
   <path class="fil0" d="M10525.17 4599.36l-3.46 0c-15.87,0 -28.87,-12.97 -28.87,-28.84l0 -2212.81c0,-15.87 13,-28.84 28.87,-28.84l3.46 0c15.86,0 28.83,12.97 28.83,28.84l0 2212.81c0,15.87 -12.97,28.84 -28.83,28.84z"/>
   <path class="fil0" d="M10592.76 4306.88l-138.57 0c-35.18,0 -63.94,-28.75 -63.94,-63.94l0 -7.5c0,-35.18 28.76,-63.94 63.94,-63.94l138.57 0c35.08,0 63.83,28.76 63.83,63.94l0 7.5c0,35.19 -28.75,63.94 -63.83,63.94z"/>
   <path class="fil0" d="M10592.76 4123.42l-138.57 0c-35.18,0 -63.94,-28.75 -63.94,-63.83l0 -7.6c0,-35.11 28.76,-63.86 63.94,-63.86l138.57 0c35.08,0 63.83,28.75 63.83,63.86l0 7.6c0,35.08 -28.75,63.83 -63.83,63.83z"/>
   <path class="fil0" d="M10592.76 3940.05l-138.57 0c-35.18,0 -63.94,-28.73 -63.94,-63.83l0 -7.61c0,-35.18 28.76,-63.94 63.94,-63.94l138.57 0c35.08,0 63.83,28.76 63.83,63.94l0 7.61c0,35.1 -28.75,63.83 -63.83,63.83z"/>
   <path class="fil0" d="M10592.76 3756.7l-138.57 0c-35.18,0 -63.94,-28.75 -63.94,-63.94l0 -7.49c0,-35.19 28.76,-63.95 63.94,-63.95l138.57 0c35.08,0 63.83,28.76 63.83,63.95l0 7.49c0,35.19 -28.75,63.94 -63.83,63.94z"/>
   <path class="fil0" d="M10592.76 3573.35l-138.57 0c-35.18,0 -63.94,-28.86 -63.94,-63.94l0 -7.6c0,-35.11 28.76,-63.86 63.94,-63.86l138.57 0c35.08,0 63.83,28.75 63.83,63.86l0 7.6c0,35.08 -28.75,63.94 -63.83,63.94z"/>
   <path class="fil0" d="M8088.77 25897.24l-95.93 -101.53 15.48 -14.72c1408.01,-1329.47 3607.77,-1323.03 5007.91,15.02l-96.54 100.95c-1346.28,-1286.51 -3461.52,-1292.75 -4815.43,-14.33l-15.49 14.61z"/>
   <path class="fil0" d="M8375.8 25156.98l-86.15 -110.01c97.6,-76.53 201.33,-148.65 308.15,-214.41 930.85,-572.48 2117.26,-683.93 3173.95,-297.96 335.49,122.48 649.31,292.29 932.95,504.69l-83.72 111.91c-272.7,-204.23 -574.6,-367.49 -897.2,-485.37 -1016.71,-371.52 -2158.01,-264.59 -3052.8,285.78 -102.32,62.96 -201.64,132.1 -295.18,205.37z"/>
   <polygon class="fil0" points="10885.92,7054.59 10076.22,6397.29 10164.3,6288.84 10973.98,6946.14 "/>
   <polygon class="fil0" points="10121.43,7054.59 10033.34,6946.14 10843.13,6288.84 10931.19,6397.29 "/>
   <polygon class="fil0" points="10948.23,7868.51 10020.18,7115.17 10108.24,7006.7 11036.29,7760.07 "/>
   <polygon class="fil0" points="10059.21,7868.51 9971.04,7760.07 10899.08,7006.7 10987.26,7115.17 "/>
   <polygon class="fil0" points="10991.1,8667.35 9981.61,7847.94 10069.7,7739.38 11079.19,8558.87 "/>
   <polygon class="fil0" points="10016.33,8667.35 9928.25,8558.87 10937.65,7739.38 11025.71,7847.94 "/>
   <polygon class="fil0" points="10991.1,9433.17 9981.61,8613.79 10069.7,8505.23 11079.19,9324.64 "/>
   <polygon class="fil0" points="10016.33,9433.17 9928.25,9324.64 10937.65,8505.23 11025.71,8613.79 "/>
   <polygon class="fil0" points="11014.67,10289.02 9960.38,9433.17 10048.44,9324.64 11102.85,10180.46 "/>
   <polygon class="fil0" points="9992.68,10289.02 9904.59,10180.46 10958.88,9324.64 11046.97,9433.17 "/>
   <polygon class="fil0" points="11147.44,11301.2 9840.95,10240.67 9929.01,10132.19 11235.53,11192.75 "/>
   <polygon class="fil0" points="9860,11301.2 9771.83,11192.75 11078.32,10132.19 11166.38,10240.67 "/>
   <polygon class="fil0" points="11211.49,12446.37 9783.36,11287.08 9871.42,11178.61 11299.55,12337.92 "/>
   <polygon class="fil0" points="9795.84,12446.37 9707.78,12337.92 11135.91,11178.61 11224,11287.08 "/>
   <polygon class="fil0" points="11265.23,13718.63 9693.25,12442.72 9825.38,12279.92 11397.26,13555.86 "/>
   <polygon class="fil0" points="9742.2,13718.63 9610.09,13555.86 11182.05,12279.92 11314.08,12442.72 "/>
   <polygon class="fil0" points="11364.17,15125.61 9604.23,13697.01 9736.34,13534.22 11496.28,14962.84 "/>
   <polygon class="fil0" points="9643.26,15125.61 9511.15,14962.84 11271.01,13534.22 11403.12,13697.01 "/>
   <polygon class="fil0" points="11571.48,18458.32 9417.78,16710.1 9549.88,16547.31 11703.58,18295.53 "/>
   <polygon class="fil0" points="9435.96,18458.32 9303.85,18295.53 11457.55,16547.31 11589.55,16710.1 "/>
   <polygon class="fil0" points="10079.02,19512.13 9179.05,18750.8 9269.32,18644.07 10169.29,19405.39 "/>
   <polygon class="fil0" points="9221.65,19512.13 9131.35,19405.39 10031.43,18644.07 10121.7,18750.8 "/>
   <polygon class="fil0" points="9691.23,20234.81 9029.14,19674.54 9119.33,19567.81 9781.53,20128.07 "/>
   <polygon class="fil0" points="9002.51,20301.64 8911.83,20195.39 9788.53,19447.72 9879.21,19554.05 "/>
   <polygon class="fil0" points="9552.5,21109.87 8970.68,20219.62 9087.61,20143.28 9669.4,21033.44 "/>
   <polygon class="fil0" points="8819.71,20891.33 8763.67,20763.34 9646.15,20377.41 9702.19,20505.37 "/>
   <polygon class="fil0" points="9357.3,21869.94 8706.85,20998.83 8818.76,20915.18 9469.24,21786.3 "/>
   <polygon class="fil0" points="8583.95,21684.01 8522.52,21558.41 9538.55,21061.14 9599.98,21186.59 "/>
   <polygon class="fil0" points="9126.93,22742.91 8438,21849.47 8548.57,21764.19 9237.59,22657.62 "/>
   <polygon class="fil0" points="8226.58,22634.27 8162.64,22509.93 9356.92,21895.92 9420.78,22020.23 "/>
   <path class="fil0" d="M8556.64 24587.09c-20.77,0 -41.24,-9.24 -55.08,-26.82l-733.15 -936.9c-23.76,-30.39 -18.37,-74.33 12.02,-98.07 30.28,-23.85 74.22,-18.48 98.07,11.91l733.14 936.99c23.77,30.39 18.37,74.33 -12.02,98.09 -12.67,9.98 -27.88,14.8 -42.98,14.8z"/>
   <path class="fil0" d="M7296.65 26836.65c-20.8,0 -41.37,-9.24 -55.14,-26.93l-628.78 -806.52c-13.28,-17.11 -17.96,-39.33 -12.62,-60.18 5.29,-20.87 19.9,-38.18 39.66,-46.82l1503.54 -658.46 -704.47 -801.42c-14.01,-15.87 -20.03,-37.29 -16.35,-58.17 3.68,-20.88 16.65,-39.03 35.24,-49.22l1385.94 -759.8c33.74,-18.75 76.23,-6.16 94.9,27.69 18.56,33.85 6.16,76.34 -27.69,94.9l-1309.6 717.89 710.01 807.66c14.69,16.73 20.58,39.52 15.75,61.24 -4.8,21.72 -19.81,39.9 -40.17,48.84l-1508.7 660.76 573.54 735.65c23.73,30.47 18.28,74.43 -12.19,98.06 -12.73,9.92 -27.85,14.83 -42.87,14.83z"/>
   <path class="fil0" d="M6344.78 26894.81c-25.32,0 -49.71,-13.73 -62.12,-37.77 -17.77,-34.24 -4.33,-76.46 29.96,-94.14l1471.27 -760.46 -817.09 -849.5c-16.27,-16.92 -23,-40.77 -17.85,-63.67 5.15,-22.86 21.37,-41.61 43.26,-49.98l1539.44 -587.3c36.06,-13.85 76.53,4.33 90.19,40.39 13.84,35.95 -4.31,76.34 -40.37,90.19l-1440.8 549.6 808.88 840.94c15.29,15.87 22.11,38.08 18.56,59.8 -3.65,21.73 -17.22,40.48 -36.82,50.67l-1554.51 803.44c-10.25,5.28 -21.21,7.79 -32,7.79z"/>
   <path class="fil0" d="M12475.68 24587.09c-15.1,0 -30.2,-4.82 -42.99,-14.8 -30.39,-23.76 -35.75,-67.7 -12.02,-98.09l733.18 -936.99c23.82,-30.39 67.67,-35.76 98.06,-11.91 30.39,23.74 35.76,67.68 12.02,98.07l-733.14 936.9c-13.85,17.58 -34.35,26.82 -55.11,26.82z"/>
   <path class="fil0" d="M13735.64 26836.65c-14.99,0 -30.09,-4.91 -42.87,-14.83 -30.39,-23.63 -35.87,-67.59 -12.13,-98.06l573.54 -735.65 -1508.7 -660.76c-20.39,-8.94 -35.38,-27.12 -40.18,-48.84 -4.82,-21.72 0.96,-44.51 15.76,-61.24l709.89 -807.66 -1309.49 -717.89c-33.85,-18.56 -46.25,-61.05 -27.69,-94.9 18.65,-33.85 61.06,-46.44 94.8,-27.69l1385.94 759.8c18.64,10.19 31.61,28.34 35.27,49.22 3.65,20.88 -2.29,42.3 -16.33,58.17l-704.42 801.42 1503.52 658.46c19.71,8.64 34.43,25.95 39.71,46.82 5.29,20.85 0.58,43.07 -12.7,60.18l-628.73 806.52c-13.84,17.69 -34.31,26.93 -55.19,26.93z"/>
   <path class="fil0" d="M14687.54 26894.81c-10.77,0 -21.72,-2.51 -32.03,-7.79l-1554.46 -803.44c-19.62,-10.19 -33.28,-28.94 -36.82,-50.67 -3.57,-21.72 3.27,-43.93 18.56,-59.8l808.92 -840.94 -1440.95 -549.6c-36.03,-13.85 -54.12,-54.24 -40.28,-90.19 13.66,-36.14 54.13,-54.24 90.11,-40.39l1539.47 587.3c21.91,8.37 38.18,27.12 43.28,49.98 5.18,22.9 -1.55,46.75 -17.8,63.67l-817.09 849.5 1471.2 760.46c34.34,17.68 47.8,59.9 30,94.14 -12.4,24.04 -36.82,37.77 -62.11,37.77z"/>
   <polygon class="fil0" points="11300.53,20234.81 11210.23,20128.07 11872.43,19567.81 11962.62,19674.54 "/>
   <polygon class="fil0" points="11989.25,20301.64 11112.44,19554.05 11203.12,19447.72 12079.93,20195.39 "/>
   <polygon class="fil0" points="11439.26,21109.87 11322.33,21033.44 11904.07,20143.28 12020.97,20219.62 "/>
   <polygon class="fil0" points="12172.02,20891.33 11289.57,20505.37 11345.61,20377.41 12228.09,20763.34 "/>
   <polygon class="fil0" points="11634.46,21869.94 11522.53,21786.3 12172.9,20915.18 12284.92,20998.83 "/>
   <polygon class="fil0" points="12407.81,21684.01 11391.78,21186.59 11453.22,21061.14 12469.24,21558.41 "/>
   <polygon class="fil0" points="11864.83,22742.91 11754.17,22657.62 12443.19,21764.19 12553.76,21849.47 "/>
   <polygon class="fil0" points="12765.18,22634.27 11570.99,22020.23 11634.85,21895.92 12829.13,22509.93 "/>
   <polygon class="fil0" points="10933.43,19512.13 10033.45,18750.8 10123.64,18644.07 11023.7,19405.39 "/>
   <polygon class="fil0" points="10076.02,19512.13 9985.75,19405.39 10885.81,18644.07 10976.11,18750.8 "/>
   <polygon class="fil0" points="11787.8,19512.13 10887.75,18750.8 10978.04,18644.07 11878.02,19405.39 "/>
   <polygon class="fil0" points="10930.43,19512.13 10840.16,19405.39 11740.13,18644.07 11830.4,18750.8 "/>
   <polygon class="fil0" points="11457.33,16729.13 9520.48,15156.87 9652.58,14994.07 11589.47,16566.36 "/>
   <polygon class="fil0" points="9550.08,16729.13 9417.97,16566.36 11354.85,14994.07 11486.88,15156.87 "/>
   <polygon class="fil0" points="10582.38,18115.15 10442.66,18115.15 10442.66,5760.88 10582.38,5760.88 "/>
   <polygon class="fil0" points="8762.42,25352.54 8622.63,25352.54 8622.63,24892.08 8762.42,24892.08 "/>
   <polygon class="fil0" points="8487.14,25506.77 8347.43,25506.77 8347.43,25046.32 8487.14,25046.32 "/>
   <polygon class="fil0" points="9203.28,25122.25 9063.57,25122.25 9063.57,24661.88 9203.28,24661.88 "/>
   <polygon class="fil0" points="9677.77,24991.78 9538.08,24991.78 9538.08,24531.33 9677.77,24531.33 "/>
   <polygon class="fil0" points="10201.81,24892.08 10062.1,24892.08 10062.1,24431.6 10201.81,24431.6 "/>
   <polygon class="fil0" points="12304.92,25319.09 12165.1,25319.09 12165.1,24858.61 12304.92,24858.61 "/>
   <polygon class="fil0" points="12580.09,25473.3 12440.3,25473.3 12440.3,25012.93 12580.09,25012.93 "/>
   <polygon class="fil0" points="11863.95,25122.25 11724.27,25122.25 11724.27,24661.88 11863.95,24661.88 "/>
   <polygon class="fil0" points="11389.46,24991.78 11249.75,24991.78 11249.75,24531.33 11389.46,24531.33 "/>
   <polygon class="fil0" points="10865.53,24892.08 10725.74,24892.08 10725.74,24431.6 10865.53,24431.6 "/>
  </g>
 </g>
</svg>
