<svg width="35" height="23" viewBox="0 0 35 23" fill="none" xmlns="http://www.w3.org/2000/svg">
<path fill-rule="evenodd" clip-rule="evenodd" d="M34.8124 3.58V10.68C34.8124 11.02 34.5325 11.3 34.1825 11.3H18.8025C18.4625 11.3 18.1825 11.02 18.1825 10.68V0.619995C18.1825 0.279995 18.4625 0 18.8025 0H31.2325C33.2025 0 34.8124 1.6 34.8124 3.58ZM23.0425 4.62L25.3325 7.17999L25.3224 6.2C25.3224 4.86 24.3925 3.7 23.0825 3.41L21.6125 3.09L21.7325 4.86C21.8225 6.22 22.8725 7.33999 24.2225 7.50999L24.8824 7.59L22.9325 4.70999C22.8925 4.63999 22.9825 4.56 23.0425 4.62ZM31.3724 2.87L29.0024 3.26999C27.1824 3.57999 25.8225 5.13999 25.7825 6.98999L25.7524 7.89L29.3724 4.87C29.4624 4.8 29.5824 4.91999 29.5024 5.00999L26.3724 8.42999L27.6924 8.28999C29.4924 8.10999 30.9224 6.69 31.1324 4.89L31.3724 2.87Z" fill="#087A85"/>
<path fill-rule="evenodd" clip-rule="evenodd" d="M6.9624 22.53C5.1224 22.43 3.62242 20.93 3.54242 19.08C3.48242 18 3.90242 17.02 4.61242 16.33C5.31242 15.64 6.29242 15.22 7.36242 15.28C9.21242 15.38 10.7024 16.89 10.7824 18.73C10.8824 20.88 9.1124 22.64 6.9624 22.53ZM8.72241 18.74C8.64241 18.01 8.05238 17.42 7.32238 17.35C6.33238 17.25 5.50241 18.08 5.60241 19.07C5.68241 19.8 6.27238 20.39 7.00238 20.46C7.99238 20.56 8.81241 19.73 8.72241 18.74Z" fill="#087A85"/>
<path fill-rule="evenodd" clip-rule="evenodd" d="M25.9524 22.53C24.1024 22.43 22.6125 20.93 22.5225 19.08C22.4725 18 22.8925 17.02 23.5925 16.33C24.2925 15.64 25.2725 15.22 26.3525 15.28C28.1925 15.38 29.6825 16.89 29.7725 18.73C29.8725 20.88 28.1024 22.64 25.9524 22.53ZM27.7024 18.75C27.6324 18.01 27.0425 17.42 26.3025 17.35C25.3125 17.25 24.4925 18.08 24.5925 19.06C24.6625 19.8 25.2525 20.39 25.9925 20.46C26.9825 20.56 27.8024 19.74 27.7024 18.75Z" fill="#087A85"/>
<path fill-rule="evenodd" clip-rule="evenodd" d="M34.8124 16.42V18.54C34.8124 18.74 34.6424 18.9 34.4424 18.9H30.1724C30.1724 18.09 29.9324 17.34 29.5224 16.7C28.8024 15.61 27.5624 14.88 26.1524 14.88C23.9224 14.88 22.1224 16.68 22.1224 18.9H11.2224C11.2224 16.68 9.41237 14.88 7.19237 14.88C6.09237 14.88 5.09241 15.33 4.36241 16.05C3.62241 16.78 3.17241 17.79 3.17241 18.9H0.392382C0.202382 18.9 0.0424066 18.75 0.0424066 18.56V16.39C0.0424066 16.2 0.202382 16.05 0.392382 16.05H0.95238V13.25H0.262377C0.142377 13.25 0.0424066 13.16 0.0424066 13.04V12.37H0.122363C-0.937637 11.3 5.12241 5.46 9.29241 2.53C10.2824 1.84 11.4524 1.45999 12.6624 1.45999H16.7424C16.9624 1.45999 17.1424 1.64 17.1424 1.87V11.97C17.1424 12.19 17.3324 12.37 17.5524 12.37H33.2824C33.5124 12.37 33.6924 12.56 33.6924 12.78V16.05H34.4424C34.6424 16.05 34.8124 16.21 34.8124 16.42ZM14.1524 10.57C14.2824 10.57 14.3924 10.46 14.3924 10.33V3.14C14.3924 2.95 14.2324 2.78999 14.0324 2.78999H11.1524C10.5324 2.78999 9.93238 2.99999 9.45238 3.39999C7.30238 5.17999 2.50238 10.55 2.51238 10.57H14.1524ZM14.7224 11.36H12.1424V12.08H14.7224V11.36Z" fill="#087A85"/>
</svg>
